<svg xmlns="http://www.w3.org/2000/svg" width="1502" height="939">
 <!-- Created with Image Occlusion Enhanced -->
 <g>
  <title>Labels</title>
 </g>
 <g>
  <title>Masks</title>
  <rect id="daa9866b95074c559420a30682bc27af-ao-1" height="97.82609" width="319.56523" y="93.60868" x="48.69569" stroke="#2D2D2D" fill="#FFEBA2"/>
  <rect id="daa9866b95074c559420a30682bc27af-ao-2" height="34.78261" width="263.04348" y="224.04346" x="100.8696" stroke="#2D2D2D" fill="#FFEBA2"/>
  <rect id="daa9866b95074c559420a30682bc27af-ao-3" height="50" width="354.34783" y="289.34781" x="16.08699" stroke="#2D2D2D" fill="#FFEBA2"/>
  <rect id="daa9866b95074c559420a30682bc27af-ao-4" height="52.17391" width="258.69566" y="352.39129" x="111.73917" stroke="#2D2D2D" fill="#FFEBA2"/>
  <rect id="daa9866b95074c559420a30682bc27af-ao-5" height="54.34783" width="350.00001" y="413.26086" x="13.91308" stroke="#2D2D2D" fill="#FFEBA2"/>
  <rect id="daa9866b95074c559420a30682bc27af-ao-6" height="54.34783" width="358.69566" y="487.17391" x="11.73917" stroke="#2D2D2D" fill="#FFEBA2"/>
  <rect id="daa9866b95074c559420a30682bc27af-ao-7" height="34.78261" width="315.2174" y="574.13043" x="46.52178" stroke="#2D2D2D" fill="#FFEBA2"/>
  <rect id="daa9866b95074c559420a30682bc27af-ao-8" height="41.30435" width="258.69566" y="637.17391" x="109.56526" stroke="#2D2D2D" fill="#FF7E7E" class="qshape"/>
  <rect id="daa9866b95074c559420a30682bc27af-ao-9" height="95.65218" width="239.13044" y="700.21739" x="131.30439" stroke="#2D2D2D" fill="#FFEBA2"/>
  <rect id="daa9866b95074c559420a30682bc27af-ao-10" height="47.82609" width="273.91305" y="699.34782" x="1153.04354" stroke="#2D2D2D" fill="#FFEBA2"/>
  <rect id="daa9866b95074c559420a30682bc27af-ao-11" height="36.95652" width="200" y="642.82608" x="1133.47833" stroke="#2D2D2D" fill="#FFEBA2"/>
  <rect id="daa9866b95074c559420a30682bc27af-ao-12" height="45.65218" width="347.8261" y="571.08695" x="1131.30441" stroke="#2D2D2D" fill="#FFEBA2"/>
  <rect id="daa9866b95074c559420a30682bc27af-ao-13" height="50" width="304.34783" y="508.04347" x="1113.91311" stroke="#2D2D2D" fill="#FFEBA2"/>
  <rect id="daa9866b95074c559420a30682bc27af-ao-14" height="50" width="297.82609" y="449.34782" x="1100.86963" stroke="#2D2D2D" fill="#FFEBA2"/>
  <rect id="daa9866b95074c559420a30682bc27af-ao-15" height="56.52174" width="139.13044" y="384.13042" x="1066.08702" stroke="#2D2D2D" fill="#FFEBA2"/>
  <rect id="daa9866b95074c559420a30682bc27af-ao-16" height="63.04348" width="434.78262" y="321.08694" x="1053.04354" stroke="#2D2D2D" fill="#FFEBA2"/>
  <rect id="daa9866b95074c559420a30682bc27af-ao-17" height="76.08696" width="360.86957" y="237.52173" x="1048.69572" stroke="#2D2D2D" fill="#FFEBA2"/>
  <rect id="daa9866b95074c559420a30682bc27af-ao-18" height="50" width="347.8261" y="167.95651" x="1094.34789" stroke="#2D2D2D" fill="#FFEBA2"/>
  <rect id="daa9866b95074c559420a30682bc27af-ao-19" height="41.30435" width="308.69566" y="102.82607" x="1113.91311" stroke="#2D2D2D" fill="#FFEBA2"/>
  <rect id="daa9866b95074c559420a30682bc27af-ao-20" height="43.47826" width="273.91305" y="33.26085" x="1113.91311" stroke="#2D2D2D" fill="#FFEBA2"/>
 </g>
</svg>