<svg xmlns="http://www.w3.org/2000/svg" width="1050" height="1335">
 <!-- Created with Image Occlusion Enhanced -->
 <g>
  <title>Labels</title>
 </g>
 <g>
  <title>Masks</title>
  <rect id="ddc738636264460e878783021ab4b3fd-ao-1" height="34.51705" width="209.6591" y="86.94874" x="243.23867" stroke="#2D2D2D" fill="#FFEBA2"/>
  <rect id="ddc738636264460e878783021ab4b3fd-ao-2" height="31.96023" width="241.61932" y="127.85783" x="147.35798" stroke="#2D2D2D" fill="#FFEBA2"/>
  <rect id="ddc738636264460e878783021ab4b3fd-ao-3" height="37.07386" width="94.60228" y="172.60215" x="236.84662" stroke="#2D2D2D" fill="#FFEBA2"/>
  <rect id="ddc738636264460e878783021ab4b3fd-ao-4" height="66.47727" width="282.52842" y="221.1817" x="5.45457" stroke="#2D2D2D" fill="#FFEBA2"/>
  <rect id="ddc738636264460e878783021ab4b3fd-ao-5" height="26.84659" width="125.28409" y="311.94875" x="107.7273" stroke="#2D2D2D" fill="#FFEBA2"/>
  <rect id="ddc738636264460e878783021ab4b3fd-ao-6" height="23.01136" width="109.94318" y="101.72715" x="620.36936" stroke="#2D2D2D" fill="#FFEBA2"/>
  <rect id="ddc738636264460e878783021ab4b3fd-ao-7" height="21.73296" width="117.61364" y="127.29533" x="638.26709" stroke="#2D2D2D" fill="#FFEBA2"/>
  <rect id="ddc738636264460e878783021ab4b3fd-ao-8" height="24.28977" width="121.44887" y="150.3067" x="652.32959" stroke="#2D2D2D" fill="#FFEBA2"/>
  <rect id="ddc738636264460e878783021ab4b3fd-ao-9" height="28.125" width="194.31819" y="118.34647" x="795.51141" stroke="#2D2D2D" fill="#FFEBA2"/>
  <rect id="ddc738636264460e878783021ab4b3fd-ao-10" height="30.68182" width="148.29546" y="197.60783" x="686.84663" stroke="#2D2D2D" fill="#FFEBA2"/>
  <rect id="ddc738636264460e878783021ab4b3fd-ao-11" height="24.28977" width="332.38637" y="246.18738" x="712.41482" stroke="#2D2D2D" fill="#FFEBA2"/>
  <rect id="ddc738636264460e878783021ab4b3fd-ao-12" height="49.85796" width="259.51705" y="285.81806" x="744.37504" stroke="#2D2D2D" fill="#FFEBA2"/>
  <rect id="ddc738636264460e878783021ab4b3fd-ao-13" height="34.51705" width="201.98864" y="348.46011" x="782.72732" stroke="#2D2D2D" fill="#FFEBA2"/>
  <rect id="ddc738636264460e878783021ab4b3fd-ao-14" height="34.51705" width="118.89205" y="394.48284" x="819.80118" stroke="#2D2D2D" fill="#FFEBA2"/>
  <rect id="ddc738636264460e878783021ab4b3fd-ao-15" height="44.74432" width="99.71591" y="444.34079" x="881.16482" stroke="#2D2D2D" fill="#FFEBA2"/>
  <rect id="ddc738636264460e878783021ab4b3fd-ao-16" height="21.73296" width="131.67614" y="357.40897" x="78.32389" stroke="#2D2D2D" fill="#FFEBA2"/>
  <rect id="ddc738636264460e878783021ab4b3fd-ao-17" height="30.68182" width="135.51137" y="398.31807" x="45.08525" stroke="#2D2D2D" fill="#FFEBA2"/>
  <rect id="ddc738636264460e878783021ab4b3fd-ao-18" height="25.56818" width="103.55114" y="444.34079" x="39.97162" stroke="#2D2D2D" fill="#FFEBA2"/>
  <rect id="ddc738636264460e878783021ab4b3fd-ao-19" height="52.41477" width="203.26705" y="806.23285" x="-0.93747" stroke="#2D2D2D" fill="#FFEBA2"/>
  <rect id="ddc738636264460e878783021ab4b3fd-ao-20" height="31.96023" width="124.00568" y="888.05103" x="80.88071" stroke="#2D2D2D" fill="#FFEBA2"/>
  <rect id="ddc738636264460e878783021ab4b3fd-ao-21" height="39.63068" width="213.49432" y="935.35217" x="-3.49429" stroke="#2D2D2D" fill="#FFEBA2"/>
  <rect id="ddc738636264460e878783021ab4b3fd-ao-22" height="66.47727" width="217.32955" y="1003.10785" x="13.12503" stroke="#2D2D2D" fill="#FFEBA2"/>
  <rect id="ddc738636264460e878783021ab4b3fd-ao-23" height="42.1875" width="170.02841" y="1101.7499" x="69.37503" stroke="#2D2D2D" fill="#FFEBA2"/>
  <rect id="ddc738636264460e878783021ab4b3fd-ao-24" height="35.79546" width="283.80683" y="1178.45445" x="57.86935" stroke="#2D2D2D" fill="#FFEBA2"/>
  <rect id="ddc738636264460e878783021ab4b3fd-ao-25" height="31.96023" width="212.21591" y="1241.0965" x="229.17617" stroke="#2D2D2D" fill="#FFEBA2"/>
  <rect id="ddc738636264460e878783021ab4b3fd-ao-26" height="28.125" width="122.72728" y="1305.01695" x="420.93754" stroke="#2D2D2D" fill="#FFEBA2"/>
  <rect id="ddc738636264460e878783021ab4b3fd-ao-27" height="42.1875" width="452.55683" y="1290.95445" x="580.73868" stroke="#2D2D2D" fill="#FFEBA2"/>
  <rect id="ddc738636264460e878783021ab4b3fd-ao-28" height="42.1875" width="150.85228" y="1237.26127" x="672.78413" stroke="#2D2D2D" fill="#FFEBA2"/>
  <rect id="ddc738636264460e878783021ab4b3fd-ao-29" height="39.63068" width="198.15341" y="1196.35218" x="721.36368" stroke="#2D2D2D" fill="#FFEBA2"/>
  
  <rect id="ddc738636264460e878783021ab4b3fd-ao-31" height="42.1875" width="209.6591" y="1075.46581" x="798.06823" stroke="#2D2D2D" fill="#FFEBA2"/>
  <rect id="ddc738636264460e878783021ab4b3fd-ao-32" height="57.52841" width="233.94887" y="1000.03967" x="814.68755" stroke="#2D2D2D" fill="#FFEBA2"/>
  <rect id="ddc738636264460e878783021ab4b3fd-ao-33" height="48.57955" width="223.7216" y="930.80103" x="821.07959" stroke="#2D2D2D" fill="#FFEBA2"/>
  <rect id="ddc738636264460e878783021ab4b3fd-ao-34" height="66.47727" width="131.67614" y="852.81808" x="841.53414" stroke="#2D2D2D" fill="#FFEBA2"/>
 </g>
</svg>