<svg xmlns="http://www.w3.org/2000/svg" width="1545" height="948.9999999999999">
 <!-- Created with Image Occlusion Enhanced -->
 <g>
  <title>Labels</title>
 </g>
 <g>
  <title>Masks</title>
  <rect id="e5f2fe5c87a4419f9c0e5b4d8418a81d-ao-1" height="47.82609" width="178.26087" y="707.69562" x="92.82606" stroke="#2D2D2D" fill="#FFEBA2"/>
  <rect id="e5f2fe5c87a4419f9c0e5b4d8418a81d-ao-2" height="67.3913" width="273.91304" y="598.99997" x="-0.6522" stroke="#2D2D2D" fill="#FFEBA2"/>
  <rect id="e5f2fe5c87a4419f9c0e5b4d8418a81d-ao-3" height="76.08696" width="280.43478" y="472.91302" x="18.91302" stroke="#2D2D2D" fill="#FFEBA2"/>
  <rect id="e5f2fe5c87a4419f9c0e5b4d8418a81d-ao-4" height="54.34783" width="228.26087" y="394.65215" x="77.60867" stroke="#2D2D2D" fill="#FFEBA2"/>
  <rect id="e5f2fe5c87a4419f9c0e5b4d8418a81d-ao-5" height="76.08696" width="343.47825" y="264.21737" x="14.56519" stroke="#2D2D2D" fill="#FFEBA2"/>
  <rect id="e5f2fe5c87a4419f9c0e5b4d8418a81d-ao-6" height="73.91304" width="195.65217" y="166.39128" x="160.21736" stroke="#2D2D2D" fill="#FFEBA2"/>
  <rect id="e5f2fe5c87a4419f9c0e5b4d8418a81d-ao-7" height="46.7731" width="316.40626" y="70.83696" x="88.02313" stroke="#2D2D2D" fill="#FFEBA2"/>
  <rect id="e5f2fe5c87a4419f9c0e5b4d8418a81d-ao-8" height="40.35326" width="156.82745" y="124.94701" x="214.58563" stroke="#2D2D2D" fill="#FFEBA2"/>
  <rect id="e5f2fe5c87a4419f9c0e5b4d8418a81d-ao-9" height="70.61821" width="321.90897" y="49.74321" x="1079.35602" stroke="#2D2D2D" fill="#FFEBA2"/>
  <rect id="e5f2fe5c87a4419f9c0e5b4d8418a81d-ao-10" height="44.93886" width="188.92663" y="168.96875" x="1213.25548" stroke="#2D2D2D" fill="#FFEBA2"/>
  <rect id="e5f2fe5c87a4419f9c0e5b4d8418a81d-ao-11" height="46.7731" width="193.51223" y="324.43887" x="1219.67532" stroke="#2D2D2D" fill="#FFEBA2"/>
  <rect id="e5f2fe5c87a4419f9c0e5b4d8418a81d-ao-12" height="44.93886" width="320.99185" y="384.05164" x="1202.25005" stroke="#2D2D2D" fill="#FFEBA2"/>
  <rect id="e5f2fe5c87a4419f9c0e5b4d8418a81d-ao-13" height="39.43614" width="200.84919" y="477.56115" x="1205.00141" stroke="#2D2D2D" fill="#FFEBA2"/>
  <rect id="e5f2fe5c87a4419f9c0e5b4d8418a81d-ao-14" height="75.20381" width="460.39403" y="599.53806" x="1077.52179" stroke="#2D2D2D" fill="#FF7E7E" class="qshape"/>
  <rect id="e5f2fe5c87a4419f9c0e5b4d8418a81d-ao-15" height="76.12093" width="309.98642" y="730.68616" x="987.38727" stroke="#2D2D2D" fill="#FFEBA2"/>
  <rect id="e5f2fe5c87a4419f9c0e5b4d8418a81d-ao-16" height="39.43614" width="180.67256" y="902.62773" x="757.70385" stroke="#2D2D2D" fill="#FFEBA2"/>
 </g>
</svg>