<svg xmlns="http://www.w3.org/2000/svg" width="1420" height="848">
 <!-- Created with Image Occlusion Enhanced -->
 <g>
  <title>Labels</title>
 </g>
 <g>
  <title>Masks</title>
  <rect id="fa7be7bd61224c3c85a270508e6dc002-ao-1" height="54.90196" width="241.17647" y="67.37252" x="236.70585" stroke="#2D2D2D" fill="#FFEBA2"/>
  <rect id="fa7be7bd61224c3c85a270508e6dc002-ao-2" height="41.17647" width="143.13725" y="16.39213" x="515.13722" stroke="#2D2D2D" fill="#FFEBA2"/>
  <rect id="fa7be7bd61224c3c85a270508e6dc002-ao-3" height="41.17647" width="133.33333" y="77.17644" x="517.09801" stroke="#2D2D2D" fill="#FFEBA2"/>
  <rect id="fa7be7bd61224c3c85a270508e6dc002-ao-4" height="29.41176" width="127.45098" y="135.99997" x="517.09801" stroke="#2D2D2D" fill="#FFEBA2"/>
  <rect id="fa7be7bd61224c3c85a270508e6dc002-ao-5" height="43.13725" width="203.92157" y="206.58821" x="209.25487" stroke="#2D2D2D" fill="#FFEBA2"/>
  <rect id="fa7be7bd61224c3c85a270508e6dc002-ao-6" height="35.29412" width="164.70588" y="271.29409" x="224.94115" stroke="#2D2D2D" fill="#FFEBA2"/>
  <rect id="fa7be7bd61224c3c85a270508e6dc002-ao-7" height="56.86274" width="156.86274" y="222.27448" x="34.74507" stroke="#2D2D2D" fill="#FFEBA2"/>
  <rect id="fa7be7bd61224c3c85a270508e6dc002-ao-8" height="45.09804" width="176.47059" y="347.76467" x="164.15684" stroke="#2D2D2D" fill="#FFEBA2"/>
  <rect id="fa7be7bd61224c3c85a270508e6dc002-ao-9" height="49.01961" width="168.62745" y="416.39212" x="128.86272" stroke="#2D2D2D" fill="#FFEBA2"/>
  <rect id="fa7be7bd61224c3c85a270508e6dc002-ao-10" height="37.2549" width="205.88235" y="591.8431" x="62.19605" stroke="#2D2D2D" fill="#FFEBA2"/>
  <rect id="fa7be7bd61224c3c85a270508e6dc002-ao-11" height="39.21569" width="162.7451" y="697.72545" x="56.3137" stroke="#2D2D2D" fill="#FFEBA2"/>
  <rect id="fa7be7bd61224c3c85a270508e6dc002-ao-12" height="50.98039" width="225.49019" y="646.74506" x="1152.39211" stroke="#2D2D2D" fill="#FFEBA2"/>
  <rect id="fa7be7bd61224c3c85a270508e6dc002-ao-13" height="82.35294" width="249.0196" y="525.17644" x="1138.66662" stroke="#2D2D2D" fill="#FFEBA2"/>
  <rect id="fa7be7bd61224c3c85a270508e6dc002-ao-14" height="78.43137" width="215.68627" y="405.5686" x="1154.3529" stroke="#2D2D2D" fill="#FFEBA2"/>
  <rect id="fa7be7bd61224c3c85a270508e6dc002-ao-15" height="80.39216" width="188.23529" y="281.25487" x="1152.39211" stroke="#2D2D2D" fill="#FFEBA2"/>
  <rect id="fa7be7bd61224c3c85a270508e6dc002-ao-16" height="49.01961" width="270.58823" y="220.47056" x="1144.54898" stroke="#2D2D2D" fill="#FFEBA2"/>
  <rect id="fa7be7bd61224c3c85a270508e6dc002-ao-17" height="54.90196" width="254.90196" y="149.88233" x="1156.31368" stroke="#2D2D2D" fill="#FFEBA2"/>
  
 </g>
</svg>